<svg xmlns="http://www.w3.org/2000/svg" viewBox="0 0 24 24" fill="white">
  <path d="M20.447 20.452h-3.554v-5.569c0-1.327-.028-3.037-1.852-3.037-1.853 0-2.136 1.445-2.136 2.938v5.668H9.355V9h3.414v1.561h.049c.476-.9 1.637-1.852 3.372-1.852 3.604 0 4.27 2.372 4.27 5.456v6.287zM5.337 7.433a2.06 2.06 0 110-4.12 2.06 2.06 0 010 4.12zM6.974 20.452H3.701V9h3.273v11.452zM22.225 0H1.771C.792 0 0 .774 0 1.727v20.546C0 23.226.792 24 1.771 24h20.451C23.208 24 24 23.226 24 22.273V1.727C24 .774 23.208 0 22.225 0z"></path>
</svg>
