<svg xmlns="http://www.w3.org/2000/svg" viewBox="0 0 24 24" fill="white">
  <path d="M23.954 4.569c-.885.392-1.83.656-2.825.775 1.014-.611 1.794-1.574 2.163-2.723-.951.564-2.005.974-3.127 1.195-.897-.959-2.178-1.559-3.594-1.559-3.179 0-5.515 2.966-4.797 6.045-4.091-.205-7.719-2.164-10.148-5.144-1.29 2.213-.669 5.108 1.523 6.574-.806-.026-1.566-.247-2.229-.616v.061c0 2.385 1.693 4.374 3.946 4.827-.413.112-.849.171-1.296.171-.314 0-.615-.03-.916-.086.631 1.953 2.445 3.377 4.604 3.416-2.07 1.623-4.678 2.348-7.29 2.04 2.179 1.397 4.768 2.209 7.548 2.209 9.142 0 14.307-7.721 13.995-14.646.962-.695 1.8-1.562 2.46-2.549z"></path>
</svg>
